<svg xmlns="http://www.w3.org/2000/svg" xmlns:xlink="http://www.w3.org/1999/xlink" viewBox="0 0 2560 1920">
  <defs>
    <linearGradient id="a" x1="100%" x2="0%" y1="50%" y2="50%">
      <stop offset="0%" stop-color="#A6BFDD" stop-opacity=".2"/>
      <stop offset="100%" stop-color="#EBF0F6" stop-opacity="0"/>
    </linearGradient>
    <filter id="b" width="111.1%" height="156.2%" x="-5.6%" y="-28.1%" filterUnits="objectBoundingBox">
      <feMorphology in="SourceAlpha" operator="dilate" radius="4" result="shadowSpreadOuter1"/>
      <feOffset in="shadowSpreadOuter1" result="shadowOffsetOuter1"/>
      <feGaussianBlur in="shadowOffsetOuter1" result="shadowBlurOuter1" stdDeviation="8"/>
      <feColorMatrix in="shadowBlurOuter1" values="0 0 0 0 0 0 0 0 0 0.461686818 0 0 0 0 1 0 0 0 1 0"/>
    </filter>
    <path id="c" d="M559 376h648v128H559z"/>
  </defs>
  <g fill="none" fill-rule="evenodd">
    <path fill="#EBF0F6" d="M0 0h2560v1920H0z"/>
    <path fill="#FFF" d="M160 265h2240v1655H160z"/>
    <path fill="#2B2E31"
          d="M401 632h-31V473h100v29h-69v40h62v28h-62v62zm142-24c15 0 28-10 28-31s-13-32-28-32c-14 0-28 11-28 32 0 20 14 31 28 31zm0-90c33 0 58 25 58 59s-25 58-58 58-58-24-58-58 25-59 58-59zm131 28c-15 0-28 11-28 31s13 31 28 31 23-10 26-19l26 9c-5 18-22 37-52 37-32 0-58-24-58-58s25-59 57-59c30 0 47 19 52 37l-27 9c-2-9-9-18-24-18zm146 86l-1-12c-6 10-19 15-31 15-26 0-41-20-41-44v-69h29v63c0 13 7 22 20 22 14 0 21-9 21-21v-64h30v90l1 20h-28zm50-31l25-5c1 8 7 16 20 16 10 0 15-5 15-11 0-5-4-9-12-10l-15-4c-21-4-31-17-31-33 0-19 18-36 42-36 31 0 42 20 43 32l-25 6c-1-7-6-15-18-15-8 0-14 5-14 11 0 5 4 9 10 10l16 3c21 5 32 18 32 34 0 18-14 36-43 36-33 0-44-21-45-34zm292 31h-31V520l-46 112h-25l-46-111v111h-30V473h41l48 115 47-115h42v159zm27-30c0-20 15-31 33-34l27-4c6-1 8-4 8-7 0-8-6-15-18-15-13 0-20 9-21 18l-27-5c2-18 18-37 47-37 35 0 48 20 48 42v54l2 18h-28l-1-13c-5 8-16 16-32 16-24 0-38-16-38-33zm44 11c13 0 24-6 24-26v-5l-25 4c-7 1-13 5-13 14 0 7 4 13 14 13zm113-45v64h-30V522h29v13c7-11 20-16 32-16 27 0 40 19 40 43v70h-30v-64c0-13-6-22-20-22-13 0-21 10-21 22zm94 34c0-20 15-31 33-34l28-4c6-1 8-4 8-7 0-8-6-15-19-15s-20 9-21 18l-26-5c2-18 17-37 47-37 35 0 48 20 48 42v54l1 18h-27l-1-13c-6 8-16 16-33 16-23 0-38-16-38-33zm45 11c12 0 24-6 24-26v-5l-25 4c-8 1-14 5-14 14 0 7 5 13 15 13zm75 25l27-7c2 12 12 21 26 21 19 0 29-10 29-31v-8c-4 7-15 14-31 14-29 0-51-23-51-54 0-29 21-53 51-53 18 0 28 7 32 15v-13h28v98c0 30-16 58-57 58-31 0-51-19-54-40zm57-37c15 0 26-11 26-28s-12-27-26-27c-15 0-27 10-27 27 0 18 11 28 27 28zm106-37h50c-1-11-8-22-25-22-15 0-24 12-25 22zm53 29l24 7c-5 19-23 35-50 35-30 0-57-22-57-59 0-35 26-58 55-58 34 0 54 22 54 57v10h-79c0 14 13 25 28 25 13 0 21-7 25-17zm117-72v30l-9-1c-15 0-29 8-29 31v51h-29V522h28v16c7-15 22-17 32-17h7z"/>
    <path fill="url(#a)" d="M0 0h423v1920H0z" transform="translate(1217)"/>
    <path fill="#FFF" d="M1640 0h920v1920h-920z"/>
    <path fill="#B9C0C7"
          d="M2296 1624h128v128h-128zM1776 1624h456v128h-456zM1776 1208h648v128h-648zM1776 1000h648v128h-648zM1776 792h648v128h-648zM1776 584h648v128h-648z"/>
    <g transform="translate(1217)">
      <use fill="#000" filter="url(#b)" xlink:href="#c"/>
      <use fill="#36363D" xlink:href="#c"/>
    </g>
    <path fill="#B9C0C7" d="M1776 168h648v128h-648z"/>
  </g>
</svg>
